<svg width="236" height="49" viewBox="0 0 236 49" fill="none" xmlns="http://www.w3.org/2000/svg">
<path d="M16.42 48.8534C16.2163 48.8534 16.1144 48.7557 16.1144 48.5603V46.6453L13.6395 42.4341C13.6198 42.395 13.61 42.3592 13.61 42.3266C13.61 42.2485 13.6625 42.2094 13.7677 42.2094H14.2903C14.3692 42.2094 14.4218 42.2191 14.448 42.2387C14.4743 42.2517 14.5006 42.281 14.5269 42.3266L16.5679 45.8245L18.6089 42.3266C18.6352 42.281 18.6615 42.2517 18.6878 42.2387C18.7141 42.2191 18.7667 42.2094 18.8456 42.2094H19.3681C19.4733 42.2094 19.5259 42.2485 19.5259 42.3266C19.5259 42.3592 19.516 42.395 19.4963 42.4341L17.0215 46.655V48.5603C17.0215 48.7557 16.9196 48.8534 16.7158 48.8534H16.42Z" fill="white"/>
<path d="M23.0275 49C21.9758 49 21.1607 48.6971 20.5823 48.0913C20.0038 47.479 19.7146 46.6257 19.7146 45.5314C19.7146 44.4371 20.0038 43.587 20.5823 42.9813C21.1607 42.369 21.9758 42.0628 23.0275 42.0628C24.0727 42.0628 24.8845 42.369 25.4629 42.9813C26.0414 43.587 26.3306 44.4371 26.3306 45.5314C26.3306 46.6257 26.0414 47.479 25.4629 48.0913C24.8845 48.6971 24.0727 49 23.0275 49ZM23.0275 48.3161C23.7966 48.3161 24.3915 48.0783 24.8122 47.6028C25.2395 47.1273 25.4531 46.4368 25.4531 45.5314C25.4531 44.626 25.2395 43.9355 24.8122 43.46C24.3915 42.9845 23.7966 42.7468 23.0275 42.7468C22.2519 42.7468 21.6504 42.9845 21.2232 43.46C20.8025 43.9355 20.5922 44.626 20.5922 45.5314C20.5922 46.4368 20.8025 47.1273 21.2232 47.6028C21.6504 48.0783 22.2519 48.3161 23.0275 48.3161Z" fill="white"/>
<path d="M30.3204 49C29.7485 49 29.2424 48.9023 28.802 48.7069C28.3616 48.505 28.0165 48.2183 27.7667 47.8471C27.5235 47.4693 27.4019 47.0296 27.4019 46.528V42.5025C27.4019 42.3071 27.5005 42.2094 27.6977 42.2094H28.0033C28.1085 42.2094 28.1841 42.2354 28.2301 42.2875C28.2761 42.3331 28.2991 42.4048 28.2991 42.5025V46.5671C28.2991 47.1077 28.4766 47.5344 28.8316 47.8471C29.1865 48.1597 29.6828 48.3161 30.3204 48.3161C30.958 48.3161 31.4543 48.1597 31.8093 47.8471C32.1642 47.5344 32.3417 47.1077 32.3417 46.5671V42.5025C32.3417 42.4048 32.3647 42.3331 32.4107 42.2875C32.4567 42.2354 32.5323 42.2094 32.6375 42.2094H32.9333C33.1371 42.2094 33.2389 42.3071 33.2389 42.5025V46.528C33.2389 47.0296 33.1141 47.4693 32.8643 47.8471C32.6211 48.2183 32.2792 48.505 31.8388 48.7069C31.3984 48.9023 30.8923 49 30.3204 49Z" fill="white"/>
<path d="M34.8049 48.8534C34.6077 48.8534 34.5091 48.7557 34.5091 48.5603V42.5025C34.5091 42.3071 34.6077 42.2094 34.8049 42.2094H37.4474C38.131 42.2094 38.6634 42.3787 39.0447 42.7174C39.4325 43.0562 39.6264 43.5545 39.6264 44.2124C39.6264 44.6683 39.5081 45.0592 39.2714 45.3848C39.0348 45.704 38.6963 45.9385 38.2559 46.0883L39.4095 48.6483C39.4226 48.6873 39.4292 48.7167 39.4292 48.7362C39.4292 48.8144 39.3799 48.8534 39.2813 48.8534H38.7587C38.6864 48.8534 38.6305 48.8437 38.5911 48.8241C38.5582 48.7981 38.5287 48.7492 38.5024 48.6776L37.4079 46.1958H35.4064V48.5603C35.4064 48.658 35.3833 48.7329 35.3373 48.785C35.2913 48.8306 35.2157 48.8534 35.1106 48.8534H34.8049ZM37.1811 45.4923C37.7201 45.4923 38.1145 45.3946 38.3643 45.1992C38.6141 44.9973 38.739 44.6683 38.739 44.2124C38.739 43.7629 38.6273 43.4372 38.4038 43.2353C38.1868 43.0269 37.845 42.9226 37.3783 42.9226H35.4064V45.4923H37.1811Z" fill="white"/>
<path d="M46.9102 48.8534C46.7065 48.8534 46.6046 48.7557 46.6046 48.5603V42.9226H44.7805C44.6753 42.9226 44.5997 42.9031 44.5537 42.864C44.5143 42.8249 44.4946 42.7565 44.4946 42.6588V42.4927C44.4946 42.395 44.5143 42.3234 44.5537 42.2778C44.5997 42.2322 44.6753 42.2094 44.7805 42.2094H49.3259C49.4311 42.2094 49.5067 42.2322 49.5527 42.2778C49.5987 42.3234 49.6217 42.395 49.6217 42.4927V42.6588C49.6217 42.7565 49.5987 42.8249 49.5527 42.864C49.5067 42.9031 49.4311 42.9226 49.3259 42.9226H47.5018V48.5603C47.5018 48.658 47.4788 48.7329 47.4328 48.785C47.3868 48.8306 47.3112 48.8534 47.206 48.8534H46.9102Z" fill="white"/>
<path d="M50.8465 48.8534C50.6493 48.8534 50.5507 48.7557 50.5507 48.5603V42.5025C50.5507 42.3071 50.6493 42.2094 50.8465 42.2094H53.489C54.1726 42.2094 54.705 42.3787 55.0863 42.7174C55.4741 43.0562 55.668 43.5545 55.668 44.2124C55.668 44.6683 55.5497 45.0592 55.313 45.3848C55.0764 45.704 54.7379 45.9385 54.2975 46.0883L55.4511 48.6483C55.4642 48.6873 55.4708 48.7167 55.4708 48.7362C55.4708 48.8144 55.4215 48.8534 55.3229 48.8534H54.8003C54.728 48.8534 54.6721 48.8437 54.6327 48.8241C54.5998 48.7981 54.5703 48.7492 54.544 48.6776L53.4495 46.1958H51.448V48.5603C51.448 48.658 51.4249 48.7329 51.3789 48.785C51.3329 48.8306 51.2573 48.8534 51.1522 48.8534H50.8465ZM53.2227 45.4923C53.7617 45.4923 54.1561 45.3946 54.4059 45.1992C54.6557 44.9973 54.7806 44.6683 54.7806 44.2124C54.7806 43.7629 54.6689 43.4372 54.4454 43.2353C54.2284 43.0269 53.8866 42.9226 53.4199 42.9226H51.448V45.4923H53.2227Z" fill="white"/>
<path d="M59.6594 49C59.0875 49 58.5814 48.9023 58.141 48.7069C57.7006 48.505 57.3555 48.2183 57.1057 47.8471C56.8625 47.4693 56.7409 47.0296 56.7409 46.528V42.5025C56.7409 42.3071 56.8395 42.2094 57.0367 42.2094H57.3423C57.4475 42.2094 57.5231 42.2354 57.5691 42.2875C57.6151 42.3331 57.6381 42.4048 57.6381 42.5025V46.5671C57.6381 47.1077 57.8156 47.5344 58.1706 47.8471C58.5255 48.1597 59.0218 48.3161 59.6594 48.3161C60.297 48.3161 60.7933 48.1597 61.1483 47.8471C61.5032 47.5344 61.6807 47.1077 61.6807 46.5671V42.5025C61.6807 42.4048 61.7037 42.3331 61.7497 42.2875C61.7957 42.2354 61.8713 42.2094 61.9765 42.2094H62.2723C62.4761 42.2094 62.5779 42.3071 62.5779 42.5025V46.528C62.5779 47.0296 62.453 47.4693 62.2033 47.8471C61.96 48.2183 61.6182 48.505 61.1778 48.7069C60.7374 48.9023 60.2313 49 59.6594 49Z" fill="white"/>
<path d="M64.1439 48.8534C63.9467 48.8534 63.8481 48.7557 63.8481 48.5603V42.5025C63.8481 42.3071 63.9467 42.2094 64.1439 42.2094H68.2456C68.3508 42.2094 68.4231 42.2289 68.4625 42.268C68.5085 42.3071 68.5315 42.3755 68.5315 42.4732V42.6393C68.5315 42.7435 68.5085 42.8184 68.4625 42.864C68.4231 42.9031 68.3508 42.9226 68.2456 42.9226H64.7453V45.1699H67.3779C67.4831 45.1699 67.5587 45.1927 67.6047 45.2383C67.6507 45.2774 67.6737 45.3458 67.6737 45.4435V45.5998C67.6737 45.6975 67.6507 45.7692 67.6047 45.8148C67.5587 45.8604 67.4831 45.8832 67.3779 45.8832H64.7453V48.1402H68.2456C68.3508 48.1402 68.4231 48.163 68.4625 48.2086C68.5085 48.2477 68.5315 48.3193 68.5315 48.4235V48.5896C68.5315 48.6873 68.5085 48.7557 68.4625 48.7948C68.4231 48.8339 68.3508 48.8534 68.2456 48.8534H64.1439Z" fill="white"/>
<path d="M73.9942 48.8534C73.797 48.8534 73.6984 48.7557 73.6984 48.5603V42.5025C73.6984 42.3071 73.797 42.2094 73.9942 42.2094H78.0959C78.2011 42.2094 78.2734 42.2289 78.3128 42.268C78.3588 42.3071 78.3818 42.3755 78.3818 42.4732V42.6393C78.3818 42.7435 78.3588 42.8184 78.3128 42.864C78.2734 42.9031 78.2011 42.9226 78.0959 42.9226H74.5956V45.1699H77.2282C77.3334 45.1699 77.409 45.1894 77.455 45.2285C77.501 45.2676 77.524 45.336 77.524 45.4337V45.5998C77.524 45.704 77.501 45.7789 77.455 45.8245C77.409 45.8636 77.3334 45.8832 77.2282 45.8832H74.5956V48.5603C74.5956 48.658 74.5726 48.7329 74.5266 48.785C74.4806 48.8306 74.405 48.8534 74.2998 48.8534H73.9942Z" fill="white"/>
<path d="M79.6078 48.8534C79.4106 48.8534 79.312 48.7557 79.312 48.5603V42.5025C79.312 42.3071 79.4106 42.2094 79.6078 42.2094H82.2502C82.9338 42.2094 83.4663 42.3787 83.8475 42.7174C84.2354 43.0562 84.4293 43.5545 84.4293 44.2124C84.4293 44.6683 84.3109 45.0592 84.0743 45.3848C83.8377 45.704 83.4991 45.9385 83.0587 46.0883L84.2123 48.6483C84.2255 48.6873 84.2321 48.7167 84.2321 48.7362C84.2321 48.8144 84.1828 48.8534 84.0842 48.8534H83.5616C83.4893 48.8534 83.4334 48.8437 83.394 48.8241C83.3611 48.7981 83.3315 48.7492 83.3052 48.6776L82.2108 46.1958H80.2092V48.5603C80.2092 48.658 80.1862 48.7329 80.1402 48.785C80.0942 48.8306 80.0186 48.8534 79.9134 48.8534H79.6078ZM81.984 45.4923C82.523 45.4923 82.9174 45.3946 83.1672 45.1992C83.417 44.9973 83.5419 44.6683 83.5419 44.2124C83.5419 43.7629 83.4301 43.4372 83.2066 43.2353C82.9897 43.0269 82.6479 42.9226 82.1812 42.9226H80.2092V45.4923H81.984Z" fill="white"/>
<path d="M85.8472 48.8534C85.65 48.8534 85.5514 48.7557 85.5514 48.5603V42.5025C85.5514 42.3071 85.65 42.2094 85.8472 42.2094H86.1529C86.2581 42.2094 86.3337 42.2354 86.3797 42.2875C86.4257 42.3331 86.4487 42.4048 86.4487 42.5025V48.5603C86.4487 48.658 86.4257 48.7329 86.3797 48.785C86.3337 48.8306 86.2581 48.8534 86.1529 48.8534H85.8472Z" fill="white"/>
<path d="M88.0619 48.8534C87.8647 48.8534 87.7661 48.7557 87.7661 48.5603V42.5025C87.7661 42.3071 87.8647 42.2094 88.0619 42.2094H92.1636C92.2688 42.2094 92.3411 42.2289 92.3805 42.268C92.4265 42.3071 92.4495 42.3755 92.4495 42.4732V42.6393C92.4495 42.7435 92.4265 42.8184 92.3805 42.864C92.3411 42.9031 92.2688 42.9226 92.1636 42.9226H88.6633V45.1699H91.2959C91.4011 45.1699 91.4767 45.1927 91.5227 45.2383C91.5687 45.2774 91.5917 45.3458 91.5917 45.4435V45.5998C91.5917 45.6975 91.5687 45.7692 91.5227 45.8148C91.4767 45.8604 91.4011 45.8832 91.2959 45.8832H88.6633V48.1402H92.1636C92.2688 48.1402 92.3411 48.163 92.3805 48.2086C92.4265 48.2477 92.4495 48.3193 92.4495 48.4235V48.5896C92.4495 48.6873 92.4265 48.7557 92.3805 48.7948C92.3411 48.8339 92.2688 48.8534 92.1636 48.8534H88.0619Z" fill="white"/>
<path d="M93.7718 48.8534C93.5746 48.8534 93.4759 48.7557 93.4759 48.5603V42.5025C93.4759 42.3071 93.5778 42.2094 93.7816 42.2094H94.0774C94.1563 42.2094 94.2154 42.2224 94.2549 42.2485C94.3009 42.268 94.3469 42.3103 94.3929 42.3755L98.1298 47.466V42.5025C98.1298 42.3071 98.2284 42.2094 98.4256 42.2094H98.7313C98.8365 42.2094 98.912 42.2354 98.9581 42.2875C99.0041 42.3331 99.0271 42.4048 99.0271 42.5025V48.5603C99.0271 48.658 99.0041 48.7329 98.9581 48.785C98.912 48.8306 98.8365 48.8534 98.7313 48.8534H98.4256C98.3533 48.8534 98.2942 48.8437 98.2481 48.8241C98.2087 48.7981 98.166 48.7525 98.12 48.6873L94.3732 43.6066V48.5603C94.3732 48.658 94.3502 48.7329 94.3042 48.785C94.2582 48.8306 94.1826 48.8534 94.0774 48.8534H93.7718Z" fill="white"/>
<path d="M100.647 48.8534C100.45 48.8534 100.351 48.7557 100.351 48.5603V42.5025C100.351 42.3071 100.45 42.2094 100.647 42.2094H102.52C103.618 42.2094 104.459 42.4732 105.044 43.0008C105.636 43.5219 105.932 44.3654 105.932 45.5314C105.932 46.6974 105.636 47.5442 105.044 48.0718C104.459 48.5929 103.618 48.8534 102.52 48.8534H100.647ZM102.589 48.1402C103.398 48.1402 104.009 47.9415 104.423 47.5442C104.844 47.1468 105.054 46.4759 105.054 45.5314C105.054 44.5869 104.844 43.916 104.423 43.5186C104.009 43.1213 103.398 42.9226 102.589 42.9226H101.248V48.1402H102.589Z" fill="white"/>
<path d="M107.348 48.8534C107.151 48.8534 107.053 48.7557 107.053 48.5603V42.5025C107.053 42.3071 107.151 42.2094 107.348 42.2094H107.654C107.759 42.2094 107.835 42.2354 107.881 42.2875C107.927 42.3331 107.95 42.4048 107.95 42.5025V48.1402H111.213C111.319 48.1402 111.391 48.163 111.43 48.2086C111.476 48.2477 111.499 48.3193 111.499 48.4235V48.5896C111.499 48.6873 111.476 48.7557 111.43 48.7948C111.391 48.8339 111.319 48.8534 111.213 48.8534H107.348Z" fill="white"/>
<path d="M113.613 48.8534C113.409 48.8534 113.308 48.7557 113.308 48.5603V46.6453L110.833 42.4341C110.813 42.395 110.803 42.3592 110.803 42.3266C110.803 42.2485 110.856 42.2094 110.961 42.2094H111.484C111.562 42.2094 111.615 42.2191 111.641 42.2387C111.668 42.2517 111.694 42.281 111.72 42.3266L113.761 45.8245L115.802 42.3266C115.828 42.281 115.855 42.2517 115.881 42.2387C115.907 42.2191 115.96 42.2094 116.039 42.2094H116.561C116.667 42.2094 116.719 42.2485 116.719 42.3266C116.719 42.3592 116.709 42.395 116.69 42.4341L114.215 46.655V48.5603C114.215 48.7557 114.113 48.8534 113.909 48.8534H113.613Z" fill="white"/>
<path d="M122.283 48.8534C122.085 48.8534 121.987 48.7557 121.987 48.5603V42.5025C121.987 42.3071 122.085 42.2094 122.283 42.2094H124.866C125.609 42.2094 126.167 42.3983 126.542 42.7761C126.917 43.1539 127.104 43.6847 127.104 44.3687C127.104 45.0526 126.917 45.5835 126.542 45.9613C126.167 46.3326 125.605 46.5182 124.856 46.5182H122.884V48.5603C122.884 48.658 122.861 48.7329 122.815 48.785C122.769 48.8306 122.693 48.8534 122.588 48.8534H122.283ZM124.856 45.805C125.316 45.805 125.658 45.6877 125.882 45.4532C126.105 45.2122 126.217 44.8507 126.217 44.3687C126.217 43.8802 126.105 43.5186 125.882 43.2841C125.658 43.0431 125.316 42.9226 124.856 42.9226H122.884V45.805H124.856Z" fill="white"/>
<path d="M127.012 48.8534C126.914 48.8534 126.864 48.8111 126.864 48.7264C126.864 48.7134 126.871 48.6808 126.884 48.6287L129.536 42.4146C129.576 42.3299 129.609 42.2745 129.635 42.2485C129.668 42.2224 129.72 42.2094 129.793 42.2094H130.158C130.23 42.2094 130.279 42.2224 130.305 42.2485C130.338 42.2745 130.374 42.3299 130.414 42.4146L133.066 48.6287C133.079 48.6808 133.086 48.7134 133.086 48.7264C133.086 48.8111 133.037 48.8534 132.938 48.8534H132.415C132.337 48.8534 132.281 48.8437 132.248 48.8241C132.221 48.8046 132.195 48.7655 132.169 48.7069L131.498 47.1143H128.452L127.781 48.7069C127.755 48.7655 127.725 48.8046 127.693 48.8241C127.666 48.8437 127.614 48.8534 127.535 48.8534H127.012ZM131.232 46.4205L129.97 43.4112L128.708 46.4205H131.232Z" fill="white"/>
<path d="M134.511 48.8534C134.314 48.8534 134.215 48.7557 134.215 48.5603V42.5025C134.215 42.3071 134.314 42.2094 134.511 42.2094H137.154C137.837 42.2094 138.37 42.3787 138.751 42.7174C139.139 43.0562 139.333 43.5545 139.333 44.2124C139.333 44.6683 139.214 45.0592 138.978 45.3848C138.741 45.704 138.403 45.9385 137.962 46.0883L139.116 48.6483C139.129 48.6873 139.136 48.7167 139.136 48.7362C139.136 48.8144 139.086 48.8534 138.988 48.8534H138.465C138.393 48.8534 138.337 48.8437 138.297 48.8241C138.265 48.7981 138.235 48.7492 138.209 48.6776L137.114 46.1958H135.113V48.5603C135.113 48.658 135.09 48.7329 135.044 48.785C134.998 48.8306 134.922 48.8534 134.817 48.8534H134.511ZM136.887 45.4923C137.426 45.4923 137.821 45.3946 138.071 45.1992C138.32 44.9973 138.445 44.6683 138.445 44.2124C138.445 43.7629 138.334 43.4372 138.11 43.2353C137.893 43.0269 137.551 42.9226 137.085 42.9226H135.113V45.4923H136.887Z" fill="white"/>
<path d="M142.13 48.8534C141.926 48.8534 141.824 48.7557 141.824 48.5603V42.9226H140C139.895 42.9226 139.819 42.9031 139.773 42.864C139.734 42.8249 139.714 42.7565 139.714 42.6588V42.4927C139.714 42.395 139.734 42.3234 139.773 42.2778C139.819 42.2322 139.895 42.2094 140 42.2094H144.545C144.65 42.2094 144.726 42.2322 144.772 42.2778C144.818 42.3234 144.841 42.395 144.841 42.4927V42.6588C144.841 42.7565 144.818 42.8249 144.772 42.864C144.726 42.9031 144.65 42.9226 144.545 42.9226H142.721V48.5603C142.721 48.658 142.698 48.7329 142.652 48.785C142.606 48.8306 142.531 48.8534 142.425 48.8534H142.13Z" fill="white"/>
<path d="M146.066 48.8534C145.869 48.8534 145.77 48.7557 145.77 48.5603V42.5025C145.77 42.3071 145.872 42.2094 146.076 42.2094H146.371C146.45 42.2094 146.51 42.2224 146.549 42.2485C146.595 42.268 146.641 42.3103 146.687 42.3755L150.424 47.466V42.5025C150.424 42.3071 150.523 42.2094 150.72 42.2094H151.025C151.131 42.2094 151.206 42.2354 151.252 42.2875C151.298 42.3331 151.321 42.4048 151.321 42.5025V48.5603C151.321 48.658 151.298 48.7329 151.252 48.785C151.206 48.8306 151.131 48.8534 151.025 48.8534H150.72C150.647 48.8534 150.588 48.8437 150.542 48.8241C150.503 48.7981 150.46 48.7525 150.414 48.6873L146.667 43.6066V48.5603C146.667 48.658 146.644 48.7329 146.598 48.785C146.552 48.8306 146.477 48.8534 146.371 48.8534H146.066Z" fill="white"/>
<path d="M152.941 48.8534C152.744 48.8534 152.645 48.7557 152.645 48.5603V42.5025C152.645 42.3071 152.744 42.2094 152.941 42.2094H157.043C157.148 42.2094 157.22 42.2289 157.259 42.268C157.305 42.3071 157.328 42.3755 157.328 42.4732V42.6393C157.328 42.7435 157.305 42.8184 157.259 42.864C157.22 42.9031 157.148 42.9226 157.043 42.9226H153.542V45.1699H156.175C156.28 45.1699 156.356 45.1927 156.402 45.2383C156.448 45.2774 156.471 45.3458 156.471 45.4435V45.5998C156.471 45.6975 156.448 45.7692 156.402 45.8148C156.356 45.8604 156.28 45.8832 156.175 45.8832H153.542V48.1402H157.043C157.148 48.1402 157.22 48.163 157.259 48.2086C157.305 48.2477 157.328 48.3193 157.328 48.4235V48.5896C157.328 48.6873 157.305 48.7557 157.259 48.7948C157.22 48.8339 157.148 48.8534 157.043 48.8534H152.941Z" fill="white"/>
<path d="M158.651 48.8534C158.453 48.8534 158.355 48.7557 158.355 48.5603V42.5025C158.355 42.3071 158.453 42.2094 158.651 42.2094H161.293C161.977 42.2094 162.509 42.3787 162.89 42.7174C163.278 43.0562 163.472 43.5545 163.472 44.2124C163.472 44.6683 163.354 45.0592 163.117 45.3848C162.881 45.704 162.542 45.9385 162.102 46.0883L163.255 48.6483C163.268 48.6873 163.275 48.7167 163.275 48.7362C163.275 48.8144 163.226 48.8534 163.127 48.8534H162.605C162.532 48.8534 162.476 48.8437 162.437 48.8241C162.404 48.7981 162.374 48.7492 162.348 48.6776L161.254 46.1958H159.252V48.5603C159.252 48.658 159.229 48.7329 159.183 48.785C159.137 48.8306 159.062 48.8534 158.956 48.8534H158.651ZM161.027 45.4923C161.566 45.4923 161.96 45.3946 162.21 45.1992C162.46 44.9973 162.585 44.6683 162.585 44.2124C162.585 43.7629 162.473 43.4372 162.25 43.2353C162.033 43.0269 161.691 42.9226 161.224 42.9226H159.252V45.4923H161.027Z" fill="white"/>
<path d="M164.762 48.8534C164.657 48.8534 164.568 48.8176 164.496 48.746C164.43 48.6678 164.397 48.5766 164.397 48.4724V48.3258C164.397 48.2151 164.43 48.1239 164.496 48.0522C164.568 47.9806 164.657 47.9448 164.762 47.9448H164.92C165.025 47.9448 165.11 47.9806 165.176 48.0522C165.248 48.1239 165.285 48.2151 165.285 48.3258V48.4724C165.285 48.5766 165.248 48.6678 165.176 48.746C165.11 48.8176 165.025 48.8534 164.92 48.8534H164.762Z" fill="white"/>
<path d="M166.572 48.8534C166.467 48.8534 166.378 48.8176 166.306 48.746C166.24 48.6678 166.207 48.5766 166.207 48.4724V48.3258C166.207 48.2151 166.24 48.1239 166.306 48.0522C166.378 47.9806 166.467 47.9448 166.572 47.9448H166.73C166.835 47.9448 166.921 47.9806 166.986 48.0522C167.059 48.1239 167.095 48.2151 167.095 48.3258V48.4724C167.095 48.5766 167.059 48.6678 166.986 48.746C166.921 48.8176 166.835 48.8534 166.73 48.8534H166.572Z" fill="white"/>
<path d="M168.382 48.8534C168.277 48.8534 168.189 48.8176 168.116 48.746C168.05 48.6678 168.018 48.5766 168.018 48.4724V48.3258C168.018 48.2151 168.05 48.1239 168.116 48.0522C168.189 47.9806 168.277 47.9448 168.382 47.9448H168.54C168.645 47.9448 168.731 47.9806 168.797 48.0522C168.869 48.1239 168.905 48.2151 168.905 48.3258V48.4724C168.905 48.5766 168.869 48.6678 168.797 48.746C168.731 48.8176 168.645 48.8534 168.54 48.8534H168.382Z" fill="white"/>
<path d="M172.253 49C171.826 49 171.399 48.9511 170.972 48.8534C170.544 48.7622 170.202 48.632 169.946 48.4626C169.88 48.4235 169.848 48.3812 169.848 48.3356C169.848 48.3161 169.857 48.2867 169.877 48.2477L170.104 47.8764C170.13 47.8308 170.16 47.808 170.193 47.808C170.225 47.808 170.258 47.821 170.291 47.8471C170.528 47.9969 170.811 48.1141 171.139 48.1988C171.474 48.277 171.82 48.3161 172.174 48.3161C172.694 48.3161 173.085 48.2314 173.348 48.062C173.611 47.8861 173.742 47.6028 173.742 47.212C173.742 46.9644 173.69 46.7658 173.584 46.616C173.479 46.4661 173.318 46.3391 173.101 46.2349C172.884 46.1242 172.533 45.9809 172.046 45.805C171.619 45.6487 171.271 45.5021 171.001 45.3653C170.732 45.222 170.502 45.0299 170.311 44.7888C170.127 44.5413 170.035 44.2286 170.035 43.8508C170.035 43.2972 170.249 42.8608 170.676 42.5416C171.11 42.2224 171.665 42.0628 172.342 42.0628C173.17 42.0628 173.841 42.2257 174.354 42.5513C174.419 42.5969 174.452 42.6393 174.452 42.6784C174.452 42.7044 174.442 42.7337 174.423 42.7663L174.196 43.1376C174.163 43.1897 174.133 43.2158 174.107 43.2158C174.087 43.2158 174.054 43.1995 174.008 43.1669C173.588 42.8868 173.032 42.7468 172.342 42.7468C171.902 42.7468 171.553 42.838 171.297 43.0203C171.041 43.2027 170.912 43.4828 170.912 43.8606C170.912 44.0951 170.958 44.2808 171.05 44.4176C171.142 44.5543 171.274 44.6683 171.445 44.7595C171.616 44.8442 171.892 44.9582 172.273 45.1015L172.677 45.2578C173.151 45.4402 173.519 45.6096 173.782 45.7659C174.045 45.9157 174.252 46.1079 174.403 46.3424C174.554 46.5769 174.63 46.8765 174.63 47.2413C174.63 47.7884 174.423 48.2183 174.008 48.531C173.594 48.8437 173.009 49 172.253 49Z" fill="white"/>
<path d="M176.05 48.8534C175.853 48.8534 175.754 48.7557 175.754 48.5603V42.5025C175.754 42.3071 175.853 42.2094 176.05 42.2094H176.356C176.461 42.2094 176.536 42.2354 176.582 42.2875C176.628 42.3331 176.651 42.4048 176.651 42.5025V48.5603C176.651 48.658 176.628 48.7329 176.582 48.785C176.536 48.8306 176.461 48.8534 176.356 48.8534H176.05Z" fill="white"/>
<path d="M178.265 48.8534C178.067 48.8534 177.969 48.7557 177.969 48.5603V42.5025C177.969 42.3071 178.071 42.2094 178.274 42.2094H178.57C178.649 42.2094 178.708 42.2224 178.748 42.2485C178.794 42.268 178.84 42.3103 178.886 42.3755L182.623 47.466V42.5025C182.623 42.3071 182.721 42.2094 182.918 42.2094H183.224C183.329 42.2094 183.405 42.2354 183.451 42.2875C183.497 42.3331 183.52 42.4048 183.52 42.5025V48.5603C183.52 48.658 183.497 48.7329 183.451 48.785C183.405 48.8306 183.329 48.8534 183.224 48.8534H182.918C182.846 48.8534 182.787 48.8437 182.741 48.8241C182.702 48.7981 182.659 48.7525 182.613 48.6873L178.866 43.6066V48.5603C178.866 48.658 178.843 48.7329 178.797 48.785C178.751 48.8306 178.675 48.8534 178.57 48.8534H178.265Z" fill="white"/>
<path d="M188.068 49C186.977 49 186.132 48.6971 185.534 48.0913C184.942 47.4855 184.647 46.6322 184.647 45.5314C184.647 44.4306 184.942 43.5773 185.534 42.9715C186.126 42.3657 186.967 42.0628 188.058 42.0628C188.479 42.0628 188.873 42.1052 189.241 42.1898C189.609 42.2745 189.918 42.3983 190.168 42.5611C190.221 42.5937 190.247 42.6295 190.247 42.6686C190.247 42.6947 190.237 42.7272 190.217 42.7663L190.01 43.1083C189.984 43.1604 189.954 43.1864 189.922 43.1864C189.889 43.1864 189.856 43.1734 189.823 43.1474C189.626 43.0301 189.383 42.9357 189.093 42.864C188.804 42.7858 188.482 42.7468 188.127 42.7468C187.319 42.7468 186.681 42.978 186.214 43.4405C185.754 43.8964 185.524 44.5934 185.524 45.5314C185.524 46.4824 185.761 47.1859 186.234 47.6419C186.707 48.0913 187.345 48.3161 188.147 48.3161C188.541 48.3161 188.883 48.2835 189.172 48.2183C189.461 48.1467 189.721 48.0425 189.951 47.9057C189.984 47.8796 190.02 47.8666 190.06 47.8666C190.093 47.8666 190.122 47.8894 190.148 47.935L190.365 48.3063C190.385 48.3323 190.395 48.3584 190.395 48.3845C190.395 48.404 190.385 48.4235 190.365 48.4431C190.352 48.4561 190.329 48.4724 190.296 48.4919C189.784 48.8306 189.041 49 188.068 49Z" fill="white"/>
<path d="M191.803 48.8534C191.605 48.8534 191.507 48.7557 191.507 48.5603V42.5025C191.507 42.3071 191.605 42.2094 191.803 42.2094H195.904C196.01 42.2094 196.082 42.2289 196.121 42.268C196.167 42.3071 196.19 42.3755 196.19 42.4732V42.6393C196.19 42.7435 196.167 42.8184 196.121 42.864C196.082 42.9031 196.01 42.9226 195.904 42.9226H192.404V45.1699H195.037C195.142 45.1699 195.217 45.1927 195.264 45.2383C195.31 45.2774 195.333 45.3458 195.333 45.4435V45.5998C195.333 45.6975 195.31 45.7692 195.264 45.8148C195.217 45.8604 195.142 45.8832 195.037 45.8832H192.404V48.1402H195.904C196.01 48.1402 196.082 48.163 196.121 48.2086C196.167 48.2477 196.19 48.3193 196.19 48.4235V48.5896C196.19 48.6873 196.167 48.7557 196.121 48.7948C196.082 48.8339 196.01 48.8534 195.904 48.8534H191.803Z" fill="white"/>
<path d="M201.594 48.8534C201.489 48.8534 201.413 48.8372 201.367 48.8046C201.321 48.7655 201.298 48.6971 201.298 48.5994V48.4138C201.298 48.3161 201.321 48.2477 201.367 48.2086C201.413 48.163 201.489 48.1402 201.594 48.1402H202.678V43.2158L201.683 43.8118C201.63 43.8443 201.581 43.8606 201.535 43.8606C201.475 43.8606 201.426 43.8281 201.387 43.7629L201.209 43.4893C201.183 43.4437 201.17 43.4014 201.17 43.3623C201.17 43.2972 201.209 43.2418 201.288 43.1962L202.826 42.2778C202.892 42.2322 202.977 42.2094 203.083 42.2094H203.28C203.477 42.2094 203.576 42.3071 203.576 42.5025V48.1402H204.66C204.765 48.1402 204.841 48.163 204.887 48.2086C204.933 48.2477 204.956 48.3161 204.956 48.4138V48.5994C204.956 48.6971 204.933 48.7655 204.887 48.8046C204.841 48.8372 204.765 48.8534 204.66 48.8534H201.594Z" fill="white"/>
<path d="M208.141 49C207.759 49 207.408 48.9577 207.086 48.873C206.764 48.7883 206.497 48.6743 206.287 48.531C206.234 48.4919 206.208 48.4561 206.208 48.4235C206.208 48.404 206.221 48.3682 206.248 48.3161L206.455 47.9643C206.481 47.9187 206.51 47.8959 206.543 47.8959C206.576 47.8959 206.609 47.9089 206.642 47.935C207.056 48.189 207.546 48.3161 208.111 48.3161C209.334 48.3161 210.011 47.58 210.142 46.1079C209.682 46.616 209.031 46.87 208.19 46.87C207.69 46.87 207.25 46.7788 206.869 46.5964C206.494 46.4075 206.202 46.1437 205.991 45.805C205.787 45.4663 205.686 45.0722 205.686 44.6227C205.686 43.7694 205.922 43.1311 206.395 42.7077C206.869 42.2778 207.539 42.0628 208.407 42.0628C209.202 42.0628 209.833 42.3103 210.3 42.8054C210.767 43.2939 211 44.0495 211 45.0722C211 46.4922 210.734 47.5018 210.201 48.1011C209.669 48.7004 208.982 49 208.141 49ZM208.377 46.2251C208.653 46.2251 208.923 46.1665 209.186 46.0493C209.449 45.932 209.666 45.7561 209.837 45.5216C210.007 45.2806 210.093 44.994 210.093 44.6618C210.093 44.03 209.942 43.5545 209.639 43.2353C209.344 42.9096 208.933 42.7468 208.407 42.7468C207.802 42.7468 207.342 42.8966 207.026 43.1962C206.718 43.4958 206.563 43.9681 206.563 44.613C206.563 45.1471 206.718 45.5509 207.026 45.8245C207.342 46.0916 207.792 46.2251 208.377 46.2251Z" fill="white"/>
<path d="M214.587 49C213.752 49 213.098 48.8306 212.625 48.4919C212.158 48.1467 211.925 47.6647 211.925 47.0459C211.925 46.642 212.033 46.2935 212.25 46.0004C212.474 45.7073 212.773 45.5054 213.148 45.3946C212.464 45.1145 212.122 44.6325 212.122 43.9486C212.122 43.3428 212.333 42.877 212.753 42.5513C213.18 42.2257 213.792 42.0628 214.587 42.0628C215.383 42.0628 215.991 42.2257 216.411 42.5513C216.839 42.877 217.052 43.3428 217.052 43.9486C217.052 44.6325 216.71 45.1145 216.027 45.3946C216.401 45.5054 216.697 45.7073 216.914 46.0004C217.138 46.2935 217.249 46.642 217.249 47.0459C217.249 47.6647 217.013 48.1467 216.539 48.4919C216.073 48.8306 215.422 49 214.587 49ZM214.587 45.0624C215.106 45.0624 215.498 44.9777 215.76 44.8084C216.03 44.6325 216.165 44.3459 216.165 43.9486C216.165 43.5252 216.033 43.219 215.77 43.0301C215.514 42.8412 215.12 42.7468 214.587 42.7468C214.055 42.7468 213.657 42.8412 213.394 43.0301C213.138 43.219 213.01 43.5252 213.01 43.9486C213.01 44.3459 213.141 44.6325 213.404 44.8084C213.673 44.9777 214.068 45.0624 214.587 45.0624ZM214.587 48.3161C215.777 48.3161 216.372 47.8927 216.372 47.0459C216.372 46.1795 215.777 45.7464 214.587 45.7464C213.397 45.7464 212.803 46.1795 212.803 47.0459C212.803 47.8927 213.397 48.3161 214.587 48.3161Z" fill="white"/>
<path d="M218.46 48.8534C218.276 48.8534 218.184 48.759 218.184 48.5701V48.2574C218.184 47.834 218.355 47.4106 218.697 46.9872C219.045 46.5573 219.545 46.173 220.195 45.8343C220.682 45.5803 221.047 45.3686 221.29 45.1992C221.54 45.0233 221.72 44.8377 221.832 44.6423C221.95 44.4469 222.01 44.2059 222.01 43.9192C222.01 43.5284 221.872 43.2353 221.595 43.0399C221.319 42.8445 220.941 42.7468 220.462 42.7468C220.133 42.7468 219.821 42.7858 219.525 42.864C219.229 42.9422 218.983 43.0431 218.785 43.1669C218.753 43.193 218.72 43.206 218.687 43.206C218.647 43.206 218.614 43.1799 218.588 43.1278L218.381 42.7663C218.361 42.7272 218.352 42.6947 218.352 42.6686C218.352 42.623 218.378 42.5839 218.43 42.5513C218.647 42.4015 218.943 42.2843 219.318 42.1996C219.693 42.1084 220.1 42.0628 220.54 42.0628C221.237 42.0628 221.803 42.2257 222.236 42.5513C222.677 42.877 222.897 43.333 222.897 43.9192C222.897 44.4338 222.733 44.867 222.404 45.2188C222.075 45.564 221.566 45.9092 220.876 46.2544C220.304 46.5476 219.863 46.8537 219.554 47.1729C219.246 47.4855 219.091 47.808 219.091 48.1402H222.552C222.657 48.1402 222.729 48.163 222.769 48.2086C222.815 48.2477 222.838 48.3193 222.838 48.4235V48.5896C222.838 48.6873 222.815 48.7557 222.769 48.7948C222.729 48.8339 222.657 48.8534 222.552 48.8534H218.46Z" fill="white"/>
<path d="M28.1862 31.4835C27.8707 31.4835 27.6406 31.4183 27.496 31.2881C27.3645 31.1448 27.2988 30.9298 27.2988 30.6432V19.0552C27.2988 18.7685 27.3645 18.5536 27.496 18.4103C27.6406 18.267 27.8707 18.1953 28.1862 18.1953H33.1753C36.5145 18.1953 38.1841 19.6414 38.1841 22.5335C38.1841 23.4585 37.9869 24.2466 37.5925 24.898C37.1981 25.5364 36.6131 26.0249 35.8375 26.3636L37.908 30.8581C37.9475 30.9493 37.9672 31.0405 37.9672 31.1317C37.9672 31.3662 37.8292 31.4835 37.5531 31.4835H35.3642C35.1801 31.4835 35.0421 31.4639 34.9501 31.4248C34.858 31.3727 34.7792 31.2685 34.7134 31.1122L32.8992 26.8131H30.5526V30.6432C30.5526 30.9298 30.4868 31.1448 30.3554 31.2881C30.2239 31.4183 29.9938 31.4835 29.6652 31.4835H28.1862ZM32.702 24.4877C33.4514 24.4877 34.0101 24.3313 34.3782 24.0187C34.7594 23.706 34.9501 23.211 34.9501 22.5335C34.9501 21.8561 34.7792 21.361 34.4374 21.0484C34.0956 20.7357 33.5828 20.5794 32.8992 20.5794H30.5526V24.4877H32.702Z" fill="white"/>
<path d="M40.6844 31.4835C40.3689 31.4835 40.1388 31.4183 39.9942 31.2881C39.8627 31.1448 39.797 30.9298 39.797 30.6432V19.0552C39.797 18.7685 39.8627 18.5536 39.9942 18.4103C40.1388 18.267 40.3689 18.1953 40.6844 18.1953H42.1634C42.492 18.1953 42.7221 18.267 42.8536 18.4103C42.985 18.5406 43.0508 18.7555 43.0508 19.0552V30.6432C43.0508 30.9298 42.985 31.1448 42.8536 31.2881C42.7221 31.4183 42.492 31.4835 42.1634 31.4835H40.6844Z" fill="white"/>
<path d="M51.8577 31.7766C49.5702 31.7766 47.7954 31.1838 46.5333 29.9983C45.2844 28.7998 44.6599 27.0801 44.6599 24.8394C44.6599 22.5856 45.2712 20.866 46.4939 19.6805C47.7296 18.495 49.4913 17.9022 51.7788 17.9022C52.7385 17.9022 53.6061 17.9999 54.3818 18.1953C55.1706 18.3777 55.8345 18.6448 56.3735 18.9965C56.505 19.0877 56.5707 19.1919 56.5707 19.3092C56.5707 19.4134 56.5312 19.5241 56.4524 19.6414L55.7622 20.8334C55.6702 20.9767 55.5781 21.0484 55.4861 21.0484C55.4072 21.0484 55.2955 21.0093 55.1509 20.9311C54.3095 20.4621 53.3169 20.2276 52.1732 20.2276C50.8191 20.2276 49.7674 20.6185 49.018 21.4001C48.2686 22.1687 47.894 23.3152 47.894 24.8394C47.894 26.3767 48.2818 27.5296 49.0574 28.2982C49.8462 29.0669 50.9177 29.4512 52.2718 29.4512C53.5075 29.4512 54.5461 29.2167 55.3875 28.7477C55.5321 28.6695 55.6439 28.6304 55.7227 28.6304C55.8148 28.6304 55.9068 28.7021 55.9988 28.8454L56.7679 30.1547C56.8205 30.2458 56.8468 30.324 56.8468 30.3892C56.8468 30.4673 56.7679 30.565 56.6101 30.6823C55.5847 31.4118 54.0005 31.7766 51.8577 31.7766Z" fill="white"/>
<path d="M59.3065 31.4835C58.991 31.4835 58.7609 31.4183 58.6163 31.2881C58.4848 31.1448 58.4191 30.9298 58.4191 30.6432V19.0552C58.4191 18.7685 58.4848 18.5536 58.6163 18.4103C58.7609 18.267 58.991 18.1953 59.3065 18.1953H67.4902C67.8057 18.1953 68.0227 18.2605 68.141 18.3907C68.2593 18.508 68.3185 18.7164 68.3185 19.0161V19.7391C68.3185 20.0387 68.2593 20.2537 68.141 20.384C68.0227 20.5142 67.8057 20.5794 67.4902 20.5794H61.6729V23.6669H65.7352C66.0507 23.6669 66.2676 23.7321 66.3859 23.8623C66.5042 23.9796 66.5634 24.188 66.5634 24.4877V25.1716C66.5634 25.4712 66.5042 25.6862 66.3859 25.8165C66.2676 25.9467 66.0507 26.0119 65.7352 26.0119H61.6729V29.119H67.4705C67.786 29.119 68.0029 29.1841 68.1213 29.3144C68.2396 29.4447 68.2987 29.6596 68.2987 29.9592V30.6627C68.2987 30.9624 68.2396 31.1773 68.1213 31.3076C68.0029 31.4248 67.786 31.4835 67.4705 31.4835H59.3065Z" fill="white"/>
<path d="M70.63 31.4835C70.3145 31.4835 70.0844 31.4183 69.9398 31.2881C69.8083 31.1448 69.7426 30.9298 69.7426 30.6432V19.0552C69.7426 18.7685 69.8083 18.5536 69.9398 18.4103C70.0844 18.267 70.3145 18.1953 70.63 18.1953H72.109C72.4376 18.1953 72.6677 18.267 72.7992 18.4103C72.9306 18.5406 72.9964 18.7555 72.9964 19.0552V29.119H78.5574C78.8729 29.119 79.0898 29.1841 79.2081 29.3144C79.3264 29.4447 79.3856 29.6596 79.3856 29.9592V30.6627C79.3856 30.9624 79.3264 31.1773 79.2081 31.3076C79.0898 31.4248 78.8729 31.4835 78.5574 31.4835H70.63Z" fill="white"/>
<path d="M80.2953 31.4835C80.0587 31.4835 79.9404 31.3727 79.9404 31.1513C79.9404 31.0601 79.9601 30.9559 79.9995 30.8386L85.1069 18.7816C85.199 18.5601 85.2976 18.4103 85.4027 18.3321C85.5211 18.2409 85.6854 18.1953 85.8957 18.1953H87.3353C87.5456 18.1953 87.7034 18.2409 87.8086 18.3321C87.9137 18.4103 88.0123 18.5601 88.1044 18.7816L93.2118 30.8386C93.2512 30.9559 93.271 31.0601 93.271 31.1513C93.271 31.3727 93.1526 31.4835 92.916 31.4835H90.5299C90.3458 31.4835 90.2078 31.4574 90.1158 31.4053C90.0369 31.3402 89.9646 31.2294 89.8989 31.0731L88.9917 28.7672H84.1998L83.3124 31.0731C83.2467 31.2294 83.1678 31.3402 83.0758 31.4053C82.9969 31.4574 82.8655 31.4835 82.6814 31.4835H80.2953ZM88.2424 26.52L86.6057 22.299L84.9492 26.52H88.2424Z" fill="white"/>
<path d="M95.7997 31.4835C95.4842 31.4835 95.2541 31.4183 95.1095 31.2881C94.978 31.1448 94.9123 30.9298 94.9123 30.6432V19.0356C94.9123 18.749 94.978 18.5406 95.1095 18.4103C95.2541 18.267 95.4908 18.1953 95.8194 18.1953H97.0421C97.2655 18.1953 97.4299 18.2279 97.535 18.293C97.6534 18.3451 97.7783 18.4559 97.9097 18.6252L103.431 26.3441V19.0552C103.431 18.7685 103.497 18.5536 103.628 18.4103C103.773 18.267 104.003 18.1953 104.319 18.1953H105.798C106.126 18.1953 106.356 18.267 106.488 18.4103C106.619 18.5406 106.685 18.7555 106.685 19.0552V30.6432C106.685 30.9298 106.619 31.1448 106.488 31.2881C106.356 31.4183 106.126 31.4835 105.798 31.4835H104.555C104.345 31.4835 104.181 31.4574 104.062 31.4053C103.957 31.3402 103.839 31.2229 103.707 31.0536L98.1661 23.3543V30.6432C98.1661 30.9298 98.1003 31.1448 97.9689 31.2881C97.8374 31.4183 97.6074 31.4835 97.2787 31.4835H95.7997Z" fill="white"/>
<path d="M109.588 31.4835C109.273 31.4835 109.043 31.4183 108.898 31.2881C108.767 31.1448 108.701 30.9298 108.701 30.6432V19.0552C108.701 18.7685 108.767 18.5536 108.898 18.4103C109.043 18.267 109.273 18.1953 109.588 18.1953H113.729C115.977 18.1953 117.686 18.7295 118.856 19.7977C120.027 20.866 120.612 22.5465 120.612 24.8394C120.612 27.1062 120.02 28.7802 118.837 29.8615C117.654 30.9428 115.951 31.4835 113.729 31.4835H109.588ZM113.887 29.119C115.057 29.119 115.931 28.7998 116.51 28.1614C117.088 27.5101 117.377 26.4027 117.377 24.8394C117.377 23.2761 117.088 22.1753 116.51 21.5369C115.931 20.8986 115.057 20.5794 113.887 20.5794H111.955V29.119H113.887Z" fill="white"/>
<path d="M130.213 31.4835C129.898 31.4835 129.667 31.4183 129.523 31.2881C129.391 31.1448 129.326 30.9298 129.326 30.6432V19.0552C129.326 18.7685 129.391 18.5536 129.523 18.4103C129.667 18.267 129.898 18.1953 130.213 18.1953H138.397C138.712 18.1953 138.929 18.2605 139.048 18.3907C139.166 18.508 139.225 18.7164 139.225 19.0161V19.7391C139.225 20.0387 139.166 20.2537 139.048 20.384C138.929 20.5142 138.712 20.5794 138.397 20.5794H132.579V23.6474H136.642C136.957 23.6474 137.174 23.7125 137.292 23.8428C137.411 23.96 137.47 24.1685 137.47 24.4681V25.1911C137.47 25.4908 137.411 25.7057 137.292 25.836C137.174 25.9663 136.957 26.0314 136.642 26.0314H132.579V30.6432C132.579 30.9298 132.514 31.1448 132.382 31.2881C132.251 31.4183 132.021 31.4835 131.692 31.4835H130.213Z" fill="white"/>
<path d="M146.059 31.7766C143.824 31.7766 142.115 31.1708 140.931 29.9592C139.761 28.7477 139.176 27.0411 139.176 24.8394C139.176 22.6377 139.761 20.9311 140.931 19.7196C142.115 18.508 143.824 17.9022 146.059 17.9022C148.28 17.9022 149.976 18.508 151.146 19.7196C152.329 20.9311 152.921 22.6377 152.921 24.8394C152.921 27.0411 152.329 28.7477 151.146 29.9592C149.976 31.1708 148.28 31.7766 146.059 31.7766ZM146.059 29.4512C147.255 29.4512 148.155 29.0669 148.76 28.2982C149.378 27.5166 149.687 26.3636 149.687 24.8394C149.687 23.3152 149.378 22.1687 148.76 21.4001C148.155 20.6185 147.255 20.2276 146.059 20.2276C144.849 20.2276 143.935 20.6185 143.318 21.4001C142.713 22.1687 142.41 23.3152 142.41 24.8394C142.41 26.3636 142.713 27.5166 143.318 28.2982C143.935 29.0669 144.849 29.4512 146.059 29.4512Z" fill="white"/>
<path d="M160.521 31.7766C158.286 31.7766 156.577 31.1708 155.394 29.9592C154.224 28.7477 153.639 27.0411 153.639 24.8394C153.639 22.6377 154.224 20.9311 155.394 19.7196C156.577 18.508 158.286 17.9022 160.521 17.9022C162.743 17.9022 164.439 18.508 165.609 19.7196C166.792 20.9311 167.384 22.6377 167.384 24.8394C167.384 27.0411 166.792 28.7477 165.609 29.9592C164.439 31.1708 162.743 31.7766 160.521 31.7766ZM160.521 29.4512C161.717 29.4512 162.618 29.0669 163.223 28.2982C163.841 27.5166 164.149 26.3636 164.149 24.8394C164.149 23.3152 163.841 22.1687 163.223 21.4001C162.618 20.6185 161.717 20.2276 160.521 20.2276C159.312 20.2276 158.398 20.6185 157.78 21.4001C157.175 22.1687 156.873 23.3152 156.873 24.8394C156.873 26.3636 157.175 27.5166 157.78 28.2982C158.398 29.0669 159.312 29.4512 160.521 29.4512Z" fill="white"/>
<path d="M169.884 31.4835C169.568 31.4835 169.338 31.4183 169.194 31.2881C169.062 31.1448 168.996 30.9298 168.996 30.6432V19.0552C168.996 18.7685 169.062 18.5536 169.194 18.4103C169.338 18.267 169.568 18.1953 169.884 18.1953H174.025C176.273 18.1953 177.982 18.7295 179.152 19.7977C180.322 20.866 180.907 22.5465 180.907 24.8394C180.907 27.1062 180.316 28.7802 179.132 29.8615C177.949 30.9428 176.247 31.4835 174.025 31.4835H169.884ZM174.183 29.119C175.353 29.119 176.227 28.7998 176.805 28.1614C177.384 27.5101 177.673 26.4027 177.673 24.8394C177.673 23.2761 177.384 22.1753 176.805 21.5369C176.227 20.8986 175.353 20.5794 174.183 20.5794H172.25V29.119H174.183Z" fill="white"/>
<path d="M186.776 31.7766C185.751 31.7766 184.765 31.6724 183.818 31.4639C182.885 31.2425 182.129 30.9363 181.551 30.5455C181.353 30.4022 181.255 30.2719 181.255 30.1547C181.255 30.0765 181.288 29.9853 181.353 29.8811L182.162 28.6109C182.241 28.4806 182.326 28.4155 182.418 28.4155C182.497 28.4155 182.596 28.4546 182.714 28.5327C183.2 28.8063 183.759 29.0278 184.39 29.1971C185.021 29.3665 185.659 29.4512 186.303 29.4512C187.066 29.4512 187.631 29.3339 187.999 29.0994C188.367 28.8519 188.551 28.4676 188.551 27.9465C188.551 27.5947 188.459 27.3081 188.275 27.0867C188.104 26.8652 187.841 26.6698 187.486 26.5004C187.144 26.3311 186.612 26.1096 185.889 25.836C185.048 25.5233 184.331 25.2042 183.739 24.8785C183.161 24.5528 182.681 24.1359 182.3 23.6278C181.932 23.1067 181.748 22.4749 181.748 21.7323C181.748 20.4947 182.201 19.5502 183.108 18.8988C184.016 18.2344 185.212 17.9022 186.697 17.9022C188.656 17.9022 190.155 18.267 191.193 18.9965C191.391 19.1529 191.489 19.2831 191.489 19.3874C191.489 19.4655 191.456 19.5567 191.391 19.6609L190.582 20.9311C190.503 21.0614 190.418 21.1265 190.326 21.1265C190.247 21.1265 190.148 21.0875 190.03 21.0093C189.228 20.4882 188.255 20.2276 187.112 20.2276C185.692 20.2276 184.982 20.7357 184.982 21.7519C184.982 22.0906 185.061 22.3707 185.218 22.5921C185.389 22.8006 185.619 22.983 185.909 23.1393C186.198 23.2826 186.651 23.4715 187.269 23.706L187.821 23.921C188.781 24.2988 189.537 24.657 190.089 24.9957C190.641 25.3214 191.062 25.7253 191.351 26.2073C191.654 26.6893 191.805 27.3081 191.805 28.0637C191.805 29.1971 191.371 30.1025 190.503 30.78C189.649 31.4444 188.406 31.7766 186.776 31.7766Z" fill="white"/>
<path d="M201.409 31.4835C201.093 31.4835 200.863 31.4183 200.718 31.2881C200.587 31.1448 200.521 30.9298 200.521 30.6432V19.0552C200.521 18.7685 200.587 18.5536 200.718 18.4103C200.863 18.267 201.093 18.1953 201.409 18.1953H202.888C203.216 18.1953 203.446 18.267 203.578 18.4103C203.709 18.5406 203.775 18.7555 203.775 19.0552V29.119H209.336C209.651 29.119 209.868 29.1841 209.987 29.3144C210.105 29.4447 210.164 29.6596 210.164 29.9592V30.6627C210.164 30.9624 210.105 31.1773 209.987 31.3076C209.868 31.4248 209.651 31.4835 209.336 31.4835H201.409Z" fill="white"/>
<path d="M212.905 31.4835C212.577 31.4835 212.34 31.4183 212.196 31.2881C212.064 31.1448 211.998 30.9298 211.998 30.6432V20.5794H208.764C208.449 20.5794 208.232 20.5208 208.114 20.4035C207.995 20.2732 207.936 20.0583 207.936 19.7586V19.0356C207.936 18.736 207.995 18.521 208.114 18.3907C208.232 18.2605 208.449 18.1953 208.764 18.1953H218.506C218.821 18.1953 219.038 18.2605 219.157 18.3907C219.288 18.521 219.354 18.736 219.354 19.0356V19.7586C219.354 20.0452 219.288 20.2537 219.157 20.384C219.038 20.5142 218.821 20.5794 218.506 20.5794H215.272V30.6432C215.272 30.9298 215.2 31.1448 215.055 31.2881C214.923 31.4183 214.693 31.4835 214.365 31.4835H212.905Z" fill="white"/>
<path d="M221.456 31.4835C221.14 31.4835 220.91 31.4183 220.766 31.2881C220.634 31.1448 220.568 30.9298 220.568 30.6432V19.0552C220.568 18.7685 220.634 18.5536 220.766 18.4103C220.91 18.267 221.14 18.1953 221.456 18.1953H225.597C227.845 18.1953 229.554 18.7295 230.724 19.7977C231.894 20.866 232.479 22.5465 232.479 24.8394C232.479 27.1062 231.887 28.7802 230.704 29.8615C229.521 30.9428 227.819 31.4835 225.597 31.4835H221.456ZM225.755 29.119C226.925 29.119 227.799 28.7998 228.377 28.1614C228.956 27.5101 229.245 26.4027 229.245 24.8394C229.245 23.2761 228.956 22.1753 228.377 21.5369C227.799 20.8986 226.925 20.5794 225.755 20.5794H223.822V29.119H225.755Z" fill="white"/>
<path d="M234.639 31.4835C234.363 31.4835 234.133 31.3923 233.949 31.2099C233.778 31.0145 233.693 30.78 233.693 30.5064V30.1156C233.693 29.829 233.778 29.5945 233.949 29.4121C234.133 29.2167 234.363 29.119 234.639 29.119H235.053C235.33 29.119 235.553 29.2167 235.724 29.4121C235.908 29.5945 236 29.829 236 30.1156V30.5064C236 30.78 235.908 31.0145 235.724 31.2099C235.553 31.3923 235.33 31.4835 235.053 31.4835H234.639Z" fill="white"/>
<path d="M16.7666 4.67294L0 26.48V27.5184L6.81143 23.3647L17.2906 9.86509L29.1761 9.42786L30.9134 8.30745L34.0572 4.67294L36.153 1.55765V0L29.3416 4.67294H16.7666Z" fill="white"/>
<path d="M17.8147 10.3846L1.57203 31.6725L9.43137 27.5187L18.8626 15.0576H30.3896L34.5813 8.30777L35.6292 4.67326V3.11561L30.3896 9.86541L17.8147 10.3846Z" fill="white"/>
</svg>
